<svg class="vogue_logo" version="1.0" xmlns="http://www.w3.org/2000/svg" width="auto" height="auto" viewBox="0 0 1200.000000 319.000000"
  preserveAspectRatio="xMidYMid meet"><g transform="translate(0.000000,319.000000) scale(0.100000,-0.100000)" stroke="none"><path  d="M6069 3095 c-332 -66 -677 -375 -869 -779 -110 -230 -149 -385 -157
          -626 -17 -494 146 -963 438 -1265 189 -196 396 -298 658 -325 166 -18 269 4
          522 110 249 105 375 125 476 75 52 -26 95 -71 113 -119 27 -72 30 -14 30 569
          l0 595 120 0 c100 0 120 3 120 15 0 13 -61 15 -490 15 -429 0 -490 -2 -490
          -15 0 -13 21 -15 125 -15 l126 0 -3 -433 -3 -432 -28 -57 c-85 -173 -259 -274
          -487 -286 -175 -8 -280 28 -386 133 -170 169 -261 461 -295 949 -13 193 -6
          806 11 951 59 508 187 793 400 894 50 24 66 26 180 25 109 0 135 -4 205 -28
          224 -77 405 -255 539 -530 59 -120 117 -284 136 -383 7 -35 17 -63 21 -63 5 0
          9 232 9 520 0 287 -4 520 -9 520 -4 0 -20 -18 -34 -39 -34 -51 -128 -99 -212
          -107 -54 -5 -71 -2 -165 34 -272 103 -436 130 -601 97z"></path><path d="M3384 3086 c-156 -30 -275 -77 -406 -161 -324 -209 -575 -578 -669
          -985 -26 -112 -36 -350 -20 -490 76 -668 453 -1188 955 -1319 386 -101 779 11
          1071 305 366 367 563 987 470 1473 -55 286 -208 578 -415 794 -239 250 -507
          381 -800 392 -73 3 -141 0 -186 -9z m301 -31 c205 -53 353 -200 448 -444 101
          -260 145 -672 126 -1191 -21 -607 -111 -940 -306 -1135 -112 -112 -235 -157
          -428 -156 -135 0 -205 15 -303 62 -286 139 -412 576 -412 1430 0 855 190 1330
          573 1434 71 19 228 19 302 0z"></path><path d="M80 3015 c0 -12 26 -15 151 -17 l152 -3 517 -1433 c285 -788 520
          -1435 523 -1438 6 -7 -25 -102 472 1451 229 715 425 1328 436 1363 l21 62 129
          0 c108 0 129 2 129 15 0 13 -38 15 -285 15 -244 0 -285 -2 -285 -15 0 -12 24
          -15 134 -17 l134 -3 -70 -220 c-89 -281 -259 -805 -450 -1390 l-151 -460 -17
          50 c-10 28 -179 487 -375 1020 -197 534 -360 978 -362 988 -5 16 6 17 126 17
          110 0 131 2 131 15 0 13 -66 15 -530 15 -460 0 -530 -2 -530 -15z"></path><path d="M7370 3015 c0 -13 23 -15 144 -15 l143 0 7 -1137 c6 -981 10 -1147
          23 -1203 67 -277 318 -474 705 -552 93 -19 145 -22 293 -22 212 1 282 15 434
          90 165 81 313 251 377 431 l24 68 0 1163 0 1162 260 0 260 0 0 -1410 0 -1409
          -122 -3 c-86 -2 -123 -7 -126 -15 -3 -10 214 -13 1062 -13 l1066 0 0 555 c0
          487 -2 555 -15 555 -12 0 -15 -14 -15 -62 0 -163 -52 -375 -127 -521 -91 -177
          -213 -299 -389 -389 -194 -99 -295 -116 -681 -110 l-153 2 0 714 0 714 31 6
          c97 19 236 -1 335 -49 158 -77 238 -199 280 -432 11 -64 21 -93 30 -93 12 0
          14 93 14 580 0 464 -3 580 -13 580 -8 0 -17 -29 -26 -82 -28 -183 -91 -311
          -184 -375 -80 -54 -162 -75 -324 -81 l-143 -5 0 673 0 672 273 -4 c256 -4 278
          -6 371 -31 368 -99 562 -345 630 -800 9 -56 17 -120 18 -141 2 -22 9 -41 16
          -44 9 -3 12 106 12 522 l0 526 -1361 0 c-1084 0 -1360 -3 -1357 -12 4 -10 49
          -14 171 -16 l167 -2 0 -1160 0 -1160 -25 -66 c-122 -323 -408 -507 -765 -491
          -178 8 -284 50 -378 147 -50 52 -102 150 -132 245 -21 69 -21 79 -27 1278 l-6
          1207 146 0 c124 0 147 2 147 15 0 13 -66 15 -535 15 -469 0 -535 -2 -535 -15z"></path>
          </g></svg>
